<svg id="Group_377" data-name="Group 377" xmlns="http://www.w3.org/2000/svg" width="81.575" height="31.105" viewBox="0 0 81.575 31.105">
  <g id="Group_1985" data-name="Group 1985" transform="translate(0)">
    <g id="Group_1983" data-name="Group 1983" transform="translate(32.25)">
      <path id="Path_499" data-name="Path 499" d="M237.831,245.279a5.548,5.548,0,0,1,2.013,2.365,8.181,8.181,0,0,1,.719,3.515,7.918,7.918,0,0,1-.719,3.476,5.276,5.276,0,0,1-4.953,3.11,5.064,5.064,0,0,1-2.431-.575,4.031,4.031,0,0,1-1.647-1.594v5.332a1.356,1.356,0,0,1-.444,1.072,1.713,1.713,0,0,1-1.176.392,1.694,1.694,0,0,1-1.189-.418,1.417,1.417,0,0,1-.457-1.1V246.037a1.493,1.493,0,0,1,.431-1.124,1.6,1.6,0,0,1,1.163-.418,1.648,1.648,0,0,1,1.176.418,1.47,1.47,0,0,1,.444,1.124v.653a4.007,4.007,0,0,1,1.66-1.659,5.1,5.1,0,0,1,2.47-.588A5.3,5.3,0,0,1,237.831,245.279Zm-1.4,8.873a4.62,4.62,0,0,0,.863-2.992,4.883,4.883,0,0,0-.863-3.084,3.222,3.222,0,0,0-4.822-.026,4.822,4.822,0,0,0-.85,3.058,4.773,4.773,0,0,0,.85,3.032,3.261,3.261,0,0,0,4.822.013Z" transform="translate(-227.547 -238.693)" fill="#161615"/>
      <path id="Path_500" data-name="Path 500" d="M288.211,224.972a1.645,1.645,0,0,1-.523-1.268,1.6,1.6,0,0,1,.523-1.254,2.333,2.333,0,0,1,2.81,0,1.588,1.588,0,0,1,.536,1.254,1.646,1.646,0,0,1-.523,1.268,2.3,2.3,0,0,1-2.823,0Zm.248,15.6a1.47,1.47,0,0,1-.457-1.163V229.323a1.431,1.431,0,0,1,.457-1.15,1.724,1.724,0,0,1,1.163-.392,1.775,1.775,0,0,1,1.176.392,1.412,1.412,0,0,1,.47,1.15v10.088a1.45,1.45,0,0,1-.47,1.163,1.739,1.739,0,0,1-1.176.405A1.689,1.689,0,0,1,288.459,240.575Z" transform="translate(-272.294 -221.979)" fill="#161615"/>
      <path id="Path_501" data-name="Path 501" d="M325.7,245.75a5.928,5.928,0,0,1,1.124,3.946v6.429a1.526,1.526,0,0,1-.431,1.15,1.638,1.638,0,0,1-1.189.418,1.683,1.683,0,0,1-1.2-.418,1.5,1.5,0,0,1-.444-1.15v-6.246a3.388,3.388,0,0,0-.562-2.169,2.16,2.16,0,0,0-1.764-.68,2.982,2.982,0,0,0-2.261.889,3.3,3.3,0,0,0-.85,2.378v5.828a1.5,1.5,0,0,1-.444,1.15,1.684,1.684,0,0,1-1.2.418,1.636,1.636,0,0,1-1.189-.418,1.525,1.525,0,0,1-.431-1.15V246.011a1.436,1.436,0,0,1,.444-1.1,1.683,1.683,0,0,1,1.2-.418,1.557,1.557,0,0,1,1.111.405,1.386,1.386,0,0,1,.431,1.058v.706a4.421,4.421,0,0,1,1.751-1.646,5.272,5.272,0,0,1,2.483-.575A4.272,4.272,0,0,1,325.7,245.75Z" transform="translate(-292.503 -238.693)" fill="#161615"/>
      <path id="Path_502" data-name="Path 502" d="M385.683,240.248a1.541,1.541,0,0,1-.431,1.072,1.327,1.327,0,0,1-1.006.47,1.535,1.535,0,0,1-1.072-.47l-6.116-5.541v4.469a1.411,1.411,0,0,1-.47,1.15,1.776,1.776,0,0,1-1.176.392,1.723,1.723,0,0,1-1.163-.392,1.43,1.43,0,0,1-.457-1.15v-15.6a1.431,1.431,0,0,1,.457-1.15,1.724,1.724,0,0,1,1.163-.392,1.776,1.776,0,0,1,1.176.392,1.412,1.412,0,0,1,.47,1.15v9.827l5.593-5.358a1.476,1.476,0,0,1,1.071-.47,1.518,1.518,0,0,1,1.49,1.49,1.524,1.524,0,0,1-.5,1.1l-4.1,3.816,4.548,4.077A1.516,1.516,0,0,1,385.683,240.248Z" transform="translate(-336.358 -222.815)" fill="#161615"/>
    </g>
    <g id="Group_1984" data-name="Group 1984" transform="translate(0 3.294)">
      <path id="Path_503" data-name="Path 503" d="M117.807,227.98H111.9a9.778,9.778,0,0,1,9.778,9.778h0a9.778,9.778,0,0,1-9.778,9.778,7.966,7.966,0,0,0-2.949.65,6.269,6.269,0,0,0-.994.663l-.007.006a6.179,6.179,0,0,0-2.225,5.6,7.048,7.048,0,0,0,6.131,1.048,6.237,6.237,0,0,1,2-6.648l.007-.006a6.279,6.279,0,0,1,.994-.663,7.968,7.968,0,0,1,2.949-.65,9.778,9.778,0,0,0,9.778-9.778h0A9.778,9.778,0,0,0,117.807,227.98Z" transform="translate(-102.783 -227.98)" fill="#d5156a" opacity="0.2"/>
      <path id="Path_504" data-name="Path 504" d="M98.248,248.854l.007-.006a6.269,6.269,0,0,1,.994-.663,7.966,7.966,0,0,1,2.949-.65,9.778,9.778,0,0,0,9.778-9.778h0a9.778,9.778,0,0,0-9.778-9.778H96.219a3.135,3.135,0,0,0-3.135,3.135v17.323c0,.027,0,.054,0,.081a7.073,7.073,0,0,0,2.934,5.934,6.179,6.179,0,0,1,2.225-5.6Z" transform="translate(-93.084 -227.98)" fill="#d5156a"/>
    </g>
  </g>
</svg>
